<?xml version="1.0" encoding="iso-8859-1"?>
<!-- Uploaded to: SVG Repo, www.svgrepo.com, Generator: SVG Repo Mixer Tools -->
<svg version="1.1" id="Layer_1" xmlns="http://www.w3.org/2000/svg" xmlns:xlink="http://www.w3.org/1999/xlink" 
	 viewBox="0 0 512 512" xml:space="preserve">
<g>
	
		<rect x="6.082" y="191.276" transform="matrix(-0.6145 -0.7889 0.7889 -0.6145 -1.9008 397.9631)" style="fill:#961300;" width="180.396" height="16.34"/>
	
		<rect x="325.502" y="191.271" transform="matrix(-0.6145 -0.7889 0.7889 -0.6145 513.8097 649.9498)" style="fill:#961300;" width="180.396" height="16.34"/>
</g>
<g>
	
		<rect x="88.117" y="109.259" transform="matrix(-0.7889 -0.6146 0.6146 -0.7889 49.6614 415.9868)" style="fill:#E42105;" width="16.341" height="180.407"/>
	
		<rect x="407.566" y="109.273" transform="matrix(-0.7889 -0.6146 0.6146 -0.7889 621.1024 612.3354)" style="fill:#E42105;" width="16.341" height="180.407"/>
</g>
<g>
	<path style="fill:#353185;" d="M163.608,370.086h-32.681v-16.34h25.428l10.034-84.098l16.226,1.936l-10.894,91.3
		C171.231,366.992,167.746,370.086,163.608,370.086z"/>
	<path style="fill:#353185;" d="M381.073,370.086h-32.681c-4.137,0-7.622-3.094-8.112-7.202l-10.894-91.3l16.226-1.936
		l10.034,84.098h25.428v16.34H381.073z"/>
</g>
<g>
	<path style="fill:#961300;" d="M503.83,278.785H8.17c-4.512,0-8.17-3.657-8.17-8.17c0-4.513,3.658-8.17,8.17-8.17h495.66
		c4.512,0,8.17,3.657,8.17,8.17C512,275.128,508.342,278.785,503.83,278.785z"/>
	<path style="fill:#961300;" d="M503.83,136.468H8.17c-4.512,0-8.17-3.657-8.17-8.17c0-4.513,3.658-8.17,8.17-8.17h495.66
		c4.512,0,8.17,3.657,8.17,8.17C512,132.811,508.342,136.468,503.83,136.468z"/>
</g>
<circle style="fill:#E42105;" cx="256" cy="230.738" r="69.752"/>
<circle style="fill:#5BACF5;" cx="256" cy="230.738" r="37.071"/>
<circle style="fill:#353185;" cx="256" cy="230.738" r="13.617"/>
<g>
	<path style="fill:#0E0A57;" d="M130.927,391.873c-4.512,0-8.17-3.657-8.17-8.17v-43.574c0-4.513,3.658-8.17,8.17-8.17
		c4.512,0,8.17,3.657,8.17,8.17v43.574C139.097,388.215,135.44,391.873,130.927,391.873z"/>
	<path style="fill:#0E0A57;" d="M381.073,391.873c-4.512,0-8.17-3.657-8.17-8.17v-43.574c0-4.513,3.658-8.17,8.17-8.17
		c4.512,0,8.17,3.657,8.17,8.17v43.574C389.243,388.215,385.585,391.873,381.073,391.873z"/>
</g>
</svg>