<?xml version="1.0" encoding="iso-8859-1"?>
<!-- Uploaded to: SVG Repo, www.svgrepo.com, Generator: SVG Repo Mixer Tools -->
<svg height="800px" width="800px" version="1.1" id="Layer_1" xmlns="http://www.w3.org/2000/svg" xmlns:xlink="http://www.w3.org/1999/xlink" 
	 viewBox="0 0 512 512" xml:space="preserve">
<path style="fill:#B8DDFF;" d="M256.002,24.451v207.742h82.627v-50.949C338.629,116.15,305.9,58.7,256.002,24.451z"/>
<g>
	<path style="fill:#5BACF5;" d="M255.997,0c-4.512,0-8.17,3.657-8.17,8.17v267.597h16.34V8.17C264.167,3.657,260.509,0,255.997,0z"
		/>
	<path style="fill:#5BACF5;" d="M360.416,240.363H151.589c-4.512,0-8.17-3.657-8.17-8.17c0-4.513,3.658-8.17,8.17-8.17h208.827
		c4.513,0,8.17,3.657,8.17,8.17C368.587,236.706,364.929,240.363,360.416,240.363z"/>
</g>
<path style="fill:#4C7FE1;" d="M372.093,285.694c-3.532-11.45-16.226-20.82-28.209-20.82H168.109
	c-11.983,0-24.677,9.368-28.208,20.82l-15.458,50.118h263.108L372.093,285.694z"/>
<polygon style="fill:#5BACF5;" points="195.889,324.92 134.817,452.311 377.176,452.311 316.104,324.92 "/>
<path style="fill:#3D51CC;" d="M326.302,357.987c-7.129,1.94-40.291,10.506-70.305,10.506s-63.178-8.566-70.305-10.506
	l-50.874,94.323h242.359L326.302,357.987z"/>
<g>
	<polygon style="fill:#B8DDFF;" points="90.765,324.92 90.765,452.311 156.604,452.311 195.889,324.92 	"/>
	<polygon style="fill:#B8DDFF;" points="421.229,324.92 316.104,324.92 355.389,452.311 421.229,452.311 	"/>
</g>
<path style="fill:#5BACF5;" d="M503.827,430.523c-16.955,0-31.964-8.278-41.316-20.934c-9.316,12.656-24.361,20.934-41.28,20.934
	c-16.955,0-31.965-8.278-41.316-20.934c-9.352,12.656-24.362,20.934-41.316,20.934c-16.959,0-31.925-8.278-41.28-20.934
	c-9.352,12.656-24.362,20.934-41.316,20.934c-16.959,0-31.965-8.278-41.281-20.934c-9.391,12.656-24.361,20.934-41.316,20.934
	c-16.958,0-31.964-8.278-41.28-20.934c-9.352,12.656-24.402,20.934-41.357,20.934c-16.919,0-31.924-8.278-41.28-20.934
	c-9.352,12.656-24.357,20.934-41.316,20.934v49.021l247.827,16.115l247.83-16.115V430.523z"/>
<path style="fill:#4C7FE1;" d="M462.51,458.61c-9.316,12.656-24.361,20.934-41.28,20.934c-16.955,0-31.965-8.278-41.316-20.934
	c-9.352,12.656-24.362,20.934-41.316,20.934c-16.959,0-31.925-8.278-41.28-20.934c-9.353,12.656-24.362,20.934-41.316,20.934
	c-16.959,0-31.965-8.278-41.281-20.934c-9.391,12.656-24.361,20.934-41.316,20.934c-16.958,0-31.964-8.278-41.28-20.934
	c-9.352,12.656-24.402,20.934-41.357,20.934c-16.919,0-31.924-8.278-41.28-20.934c-9.352,12.656-24.357,20.934-41.316,20.934V512
	h495.66v-32.455C486.872,479.545,471.862,471.267,462.51,458.61z"/>
</svg>