<?xml version="1.0" encoding="iso-8859-1"?>
<!-- Uploaded to: SVG Repo, www.svgrepo.com, Generator: SVG Repo Mixer Tools -->
<svg version="1.1" id="Layer_1" xmlns="http://www.w3.org/2000/svg" xmlns:xlink="http://www.w3.org/1999/xlink" 
	 viewBox="0 0 512.001 512.001" xml:space="preserve">
<rect x="247.698" y="8.303" style="fill:#353185;" width="16.605" height="129.124"/>
<g>
	<rect x="27.656" y="452.099" style="fill:#0E0A57;" width="456.693" height="16.605"/>
	<path style="fill:#0E0A57;" d="M395.8,181.706h-16.605v-25.578l-123.194-10.372l-123.194,10.372v25.578h-16.605v-33.211
		c0-4.315,3.306-7.911,7.606-8.274l131.497-11.07c0.463-0.039,0.93-0.039,1.393,0l131.497,11.07c4.3,0.362,7.606,3.958,7.606,8.274
		V181.706z"/>
</g>
<path style="fill:#353185;" d="M484.345,490.847c-4.585,0-8.303-3.717-8.303-8.303v-73.243l-18.371-182.706
	c-1.994-19.832-20.519-36.587-40.451-36.587H94.78c-19.932,0-38.456,16.755-40.451,36.587l-18.37,182.706v73.243
	c0,4.585-3.717,8.303-8.303,8.303s-8.303-3.717-8.303-8.303v-73.659c0-0.277,0.014-0.555,0.042-0.83l18.412-183.12
	c2.857-28.414,28.415-51.531,56.972-51.531h322.442c28.557,0,54.115,23.117,56.972,51.531l18.412,183.12
	c0.028,0.277,0.042,0.554,0.042,0.83v73.659C492.648,487.13,488.93,490.847,484.345,490.847z"/>
<g>
	<polygon style="fill:#961300;" points="60.775,408.807 60.775,512 190.925,512 213.066,460.404 190.925,408.807 	"/>
	<polygon style="fill:#961300;" points="321.076,408.807 298.935,460.404 321.076,512 451.226,512 451.226,408.807 	"/>
</g>
<rect x="190.93" y="408.803" style="fill:#E42105;" width="130.153" height="103.197"/>
<path style="fill:#0E0A57;" d="M438.092,16.605H73.909c-4.585,0-8.303-3.717-8.303-8.303S69.324,0,73.909,0h364.184
	c4.585,0,8.303,3.717,8.303,8.303S442.677,16.605,438.092,16.605z"/>
<path style="fill:#353185;" d="M459.529,512h-16.605V409.224l-10.119-100.637c-0.794-7.891-8.164-14.557-16.095-14.557H95.291
	c-7.931,0-15.301,6.667-16.094,14.557L69.078,409.225v102.776H52.473V408.808c0-0.277,0.014-0.555,0.042-0.83l10.161-101.052
	c1.635-16.267,16.267-29.501,32.616-29.501h321.419c16.35,0,30.981,13.235,32.616,29.501l10.16,101.052
	c0.028,0.277,0.042,0.554,0.042,0.83V512H459.529z"/>
</svg>