<?xml version="1.0" encoding="iso-8859-1"?>
<!-- Uploaded to: SVG Repo, www.svgrepo.com, Generator: SVG Repo Mixer Tools -->
<svg version="1.1" id="Layer_1" xmlns="http://www.w3.org/2000/svg" xmlns:xlink="http://www.w3.org/1999/xlink" 
	 viewBox="0 0 512 512" xml:space="preserve">
<polygon style="fill:#FF7039;" points="379.969,179.43 426.044,140.045 426.044,65.39 255.999,0 85.954,65.39 85.954,140.045 
	132.029,179.43 85.954,218.815 85.954,328.763 426.044,328.763 426.044,218.815 "/>
<rect x="197.423" y="140.044" style="fill:#E42105;" width="117.158" height="188.717"/>
<polygon style="fill:#FFB367;" points="8.06,306.966 38.329,440.687 473.667,440.687 503.937,306.966 "/>
<path style="fill:#5BACF5;" d="M503.937,430.488c-16.962,0-31.978-8.282-41.334-20.943c-9.32,12.662-24.372,20.943-41.298,20.943
	c-16.962,0-31.979-8.282-41.334-20.943c-9.356,12.662-24.373,20.943-41.334,20.943c-16.967,0-31.939-8.282-41.298-20.943
	c-9.356,12.662-24.373,20.943-41.334,20.943c-16.967,0-31.979-8.282-41.299-20.943c-9.396,12.662-24.372,20.943-41.334,20.943
	c-16.966,0-31.978-8.282-41.298-20.943c-9.356,12.662-24.412,20.943-41.375,20.943c-16.926,0-31.938-8.282-41.298-20.943
	c-9.356,12.662-24.368,20.943-41.334,20.943v49.043l247.938,16.122L503.94,479.53v-49.043H503.937z"/>
<path style="fill:#4C7FE1;" d="M462.603,458.587c-9.32,12.662-24.372,20.943-41.298,20.943c-16.962,0-31.979-8.282-41.334-20.943
	c-9.356,12.662-24.373,20.943-41.334,20.943c-16.967,0-31.939-8.282-41.298-20.943c-9.357,12.662-24.373,20.943-41.334,20.943
	c-16.967,0-31.979-8.282-41.299-20.943c-9.396,12.662-24.372,20.943-41.334,20.943c-16.966,0-31.978-8.282-41.298-20.943
	c-9.356,12.662-24.412,20.943-41.375,20.943c-16.926,0-31.938-8.282-41.298-20.943C40.041,471.249,25.03,479.53,8.063,479.53V512
	H503.94v-32.47C486.975,479.53,471.959,471.249,462.603,458.587z"/>
<g>
	<rect x="347.276" y="140.044" style="fill:#FFF0B2;" width="78.774" height="78.774"/>
	<rect x="85.954" y="140.044" style="fill:#FFF0B2;" width="78.774" height="78.774"/>
</g>
</svg>