<?xml version="1.0" encoding="iso-8859-1"?>
<!-- Uploaded to: SVG Repo, www.svgrepo.com, Generator: SVG Repo Mixer Tools -->
<svg version="1.1" id="Layer_1" xmlns="http://www.w3.org/2000/svg" xmlns:xlink="http://www.w3.org/1999/xlink" 
	 viewBox="0 0 512 512" xml:space="preserve">
<g>
	<path style="fill:#0E0A57;" d="M30.945,157.865v-45.808c0-4.588-3.719-8.307-8.307-8.307s-8.307,3.719-8.307,8.307v54.115
		c0,4.588,3.719,8.307,8.307,8.307h43.83v-16.613H30.945z"/>
	<path style="fill:#0E0A57;" d="M489.817,103.75c-4.588,0-8.307,3.719-8.307,8.307v45.808h-35.996v16.613h44.303
		c4.588,0,8.307-3.719,8.307-8.307v-54.115C498.124,107.469,494.405,103.75,489.817,103.75z"/>
	<path style="fill:#0E0A57;" d="M121.816,0c-4.588,0-8.307,3.719-8.307,8.307v33.227h16.613V8.307
		C130.123,3.719,126.404,0,121.816,0z"/>
	<path style="fill:#0E0A57;" d="M390.165,0c-4.588,0-8.307,3.719-8.307,8.307v33.227h16.613V8.307
		C398.472,3.719,394.754,0,390.165,0z"/>
</g>
<path style="fill:#FF7039;" d="M442.027,46.944c-1.119-9.071-9.492-16.492-18.629-16.492H88.591
	c-9.137,0-17.522,7.421-18.629,16.492L49.328,215.804l63.308,121.998h286.716l63.308-121.998L442.027,46.944z"/>
<path style="fill:#FFFFFF;" d="M439.859,166.174L425.537,48.978c-0.092-0.75-1.393-1.912-2.141-1.912H88.591
	c-0.749,0-2.048,1.15-2.139,1.893L72.13,166.174H439.859z"/>
<rect x="103.501" y="375.952" style="fill:#353185;" width="304.99" height="44.303"/>
<g>
	<path style="fill:#0E0A57;" d="M15.348,364.871v130.516c0,9.137,7.476,16.613,16.613,16.613h66c9.137,0,16.613-7.476,16.613-16.613
		V364.871H15.348z"/>
	<path style="fill:#0E0A57;" d="M397.414,364.871v130.516c0,9.137,7.476,16.613,16.613,16.613h65.989
		c9.137,0,16.613-7.476,16.613-16.613V364.871H397.414z"/>
</g>
<g>
	<circle style="fill:#FFFFFF;" cx="154.195" cy="240.907" r="28.312"/>
	<circle style="fill:#FFFFFF;" cx="357.788" cy="240.907" r="28.312"/>
</g>
<g>
	<path style="fill:#0E0A57;" d="M222.018,277.528c-4.588,0-8.307-3.719-8.307-8.307v-56.623c0-4.588,3.719-8.307,8.307-8.307
		c4.588,0,8.307,3.719,8.307,8.307v56.623C230.324,273.809,226.605,277.528,222.018,277.528z"/>
	<path style="fill:#0E0A57;" d="M255.991,277.528c-4.588,0-8.307-3.719-8.307-8.307v-56.623c0-4.588,3.719-8.307,8.307-8.307
		c4.588,0,8.307,3.719,8.307,8.307v56.623C264.298,273.809,260.579,277.528,255.991,277.528z"/>
	<path style="fill:#0E0A57;" d="M289.965,277.528c-4.588,0-8.307-3.719-8.307-8.307v-56.623c0-4.588,3.719-8.307,8.307-8.307
		c4.588,0,8.307,3.719,8.307,8.307v56.623C298.271,273.809,294.552,277.528,289.965,277.528z"/>
</g>
<g>
	<path style="fill:#3D51CC;" d="M112.637,315.651l-54.304,22.151L4.029,315.651v-77.696c0-12.183,9.968-22.151,22.151-22.151h23.148
		h12.959c12.183,0,24.854,9.592,28.165,21.321L112.637,315.651z"/>
	<path style="fill:#3D51CC;" d="M507.949,237.955l0.011,77.696l-54.304,22.151l-54.304-22.151l22.173-78.526
		c3.312-11.729,15.993-21.321,28.176-21.321h12.959h23.137C497.981,215.804,507.949,225.772,507.949,237.955z"/>
</g>
<polygon style="fill:#4C7FE1;" points="507.96,315.651 4.029,315.651 4.029,375.947 507.971,375.947 "/>
</svg>