<?xml version="1.0" encoding="iso-8859-1"?>
<!-- Uploaded to: SVG Repo, www.svgrepo.com, Generator: SVG Repo Mixer Tools -->
<svg height="800px" width="800px" version="1.1" id="Layer_1" xmlns="http://www.w3.org/2000/svg" xmlns:xlink="http://www.w3.org/1999/xlink" 
	 viewBox="0 0 512 512" xml:space="preserve">
<path style="fill:#353185;" d="M426.134,34.3H85.859c-4.511,0-8.167-3.655-8.167-8.167s3.655-8.167,8.167-8.167h340.273
	c4.511,0,8.167,3.655,8.167,8.167S430.644,34.3,426.134,34.3z"/>
<path style="fill:#3D51CC;" d="M348.602,102.332c-5.577,52.537-40.81,93.758-92.605,122.973
	c-51.53-29.066-86.668-69.966-92.518-122.168c-2.823,15.732-14.856,98.535-20.446,133.056l225.914-0.003
	C363.37,201.558,351.426,118.066,348.602,102.332z"/>
<path style="fill:#4C7FE1;" d="M255.997,225.305c51.795-29.215,87.029-70.435,92.605-122.973
	c-3.205-17.852-18.516-32.492-36.992-50.066l-55.614-21.778l-55.614,21.778c-18.475,17.573-33.7,33.018-36.904,50.87
	C169.329,155.339,204.467,196.239,255.997,225.305z"/>
<path style="fill:#B8DDFF;" d="M458.345,248.669c-2.096-12.85-15.081-23.364-28.855-23.364H82.504
	c-13.774,0-26.759,10.514-28.855,23.364c-2.096,12.85-3.811,23.364-3.811,23.364l206.16,21.778l206.16-21.778
	C462.156,272.033,460.441,261.519,458.345,248.669z"/>
<polygon style="fill:#353185;" points="17.171,272.033 34.314,437.426 277.775,437.426 255.997,272.033 "/>
<polygon style="fill:#0E0A57;" points="494.823,272.033 255.997,272.033 255.997,437.426 477.707,437.426 "/>
<path style="fill:#5BACF5;" d="M503.718,430.559c-16.947,0-31.95-8.274-41.298-20.925c-9.312,12.651-24.351,20.925-41.262,20.925
	c-16.947,0-31.951-8.274-41.298-20.925c-9.348,12.651-24.352,20.925-41.298,20.925c-16.952,0-31.911-8.274-41.262-20.925
	c-9.348,12.651-24.352,20.925-41.298,20.925c-16.952,0-31.951-8.274-41.263-20.925c-9.387,12.651-24.351,20.925-41.298,20.925
	c-16.951,0-31.95-8.274-41.262-20.925c-9.348,12.651-24.391,20.925-41.338,20.925c-16.911,0-31.91-8.274-41.262-20.925
	c-9.348,12.651-24.346,20.925-41.298,20.925v49l247.721,16.108l247.721-16.108v-49H503.718z"/>
<path style="fill:#4C7FE1;" d="M462.419,458.634c-9.312,12.651-24.351,20.925-41.262,20.925c-16.947,0-31.951-8.274-41.298-20.925
	c-9.348,12.651-24.352,20.925-41.298,20.925c-16.952,0-31.911-8.274-41.262-20.925c-9.349,12.651-24.352,20.925-41.298,20.925
	c-16.952,0-31.951-8.274-41.263-20.925c-9.387,12.651-24.351,20.925-41.298,20.925c-16.951,0-31.95-8.274-41.262-20.925
	c-9.348,12.651-24.391,20.925-41.338,20.925c-16.911,0-31.91-8.274-41.262-20.925c-9.348,12.651-24.346,20.925-41.298,20.925V512
	H503.72v-32.441C486.77,479.559,471.768,471.285,462.419,458.634z"/>
<path style="fill:#3D51CC;" d="M341.293,0H170.701c-9.02,0-16.333,7.313-16.333,16.333v19.6c0,9.02,7.313,16.333,16.333,16.333
	h170.592c9.02,0,16.333-7.313,16.333-16.333v-19.6C357.626,7.313,350.313,0,341.293,0z"/>
</svg>