<?xml version="1.0" encoding="utf-8"?>
<!-- Uploaded to: SVG Repo, www.svgrepo.com, Generator: SVG Repo Mixer Tools -->
<svg width="800px" height="800px" viewBox="0 0 1024 1024" class="icon"  version="1.1" xmlns="http://www.w3.org/2000/svg"><path d="M511.967789 1002.6038a490.635797 490.635797 0 1 1 490.635797-490.635798 490.635797 490.635797 0 0 1-490.635797 490.635798z m0-733.607178A242.97138 242.97138 0 1 0 754.939168 511.968002 243.1847 243.1847 0 0 0 511.967789 268.996622z" fill="#FDCA89" /><path d="M511.967789 42.664196A469.303806 469.303806 0 1 1 42.663982 511.968002 469.303806 469.303806 0 0 1 511.967789 42.664196m0 733.607177A264.303371 264.303371 0 1 0 247.664418 511.968002 264.516691 264.516691 0 0 0 511.967789 776.271373M511.967789 0.000213a511.967789 511.967789 0 1 0 511.967788 511.967789A511.967789 511.967789 0 0 0 511.967789 0.000213z m0 733.607178A221.639389 221.639389 0 1 1 733.607177 511.968002 221.639389 221.639389 0 0 1 511.967789 733.607391z" fill="#5C2D51" /><path d="M511.967789 1002.6038a489.142558 489.142558 0 0 1-152.737057-24.31847l51.836738-245.531219a241.051501 241.051501 0 0 0 202.013957 0l51.836739 245.531219A489.142558 489.142558 0 0 1 511.967789 1002.6038z" fill="#9FDBAD" /><path d="M597.295753 761.978939l42.663983 201.587317a472.076965 472.076965 0 0 1-255.983894 0l42.663982-201.587317a262.170172 262.170172 0 0 0 170.655929 0m30.718068-61.436135a220.146149 220.146149 0 0 1-231.878744 0l-61.649455 291.82164a513.674348 513.674348 0 0 0 354.964333 0l-61.436134-291.82164z" fill="#5C2D51" /><path d="M612.868107 291.181893a241.051501 241.051501 0 0 0-202.013957 0L359.230732 45.650674a492.555677 492.555677 0 0 1 305.474114 0z" fill="#9FDBAD" /><path d="M511.967789 42.664196a469.303806 469.303806 0 0 1 127.991947 17.705552l-42.663983 201.587317a262.170172 262.170172 0 0 0-170.655929 0l-42.663982-201.587317A469.303806 469.303806 0 0 1 511.967789 42.664196m0-42.663983a511.967789 511.967789 0 0 0-177.482167 31.571347l61.436135 291.60832a220.146149 220.146149 0 0 1 231.878744 0l61.649454-291.60832A511.967789 511.967789 0 0 0 511.967789 0.000213z" fill="#5C2D51" /><path d="M732.753898 612.86832a241.051501 241.051501 0 0 0 0-202.013956l245.531218-51.836739a492.555677 492.555677 0 0 1 0 305.474114z" fill="#F05071" /><path d="M963.566042 383.976055a472.076965 472.076965 0 0 1 0 255.983894l-201.587316-42.663982a262.170172 262.170172 0 0 0 0-170.65593l201.587316-42.663982m28.584869-49.70354l-291.60832 61.649455a220.146149 220.146149 0 0 1 0 231.878744l291.60832 61.436135a513.674348 513.674348 0 0 0 0-354.964334z" fill="#5C2D51" /><path d="M45.650461 664.705059a492.555677 492.555677 0 0 1 0-305.474114l245.531219 51.836739a241.051501 241.051501 0 0 0 0 202.013956z" fill="#F05071" /><path d="M60.369535 383.976055l201.587317 42.663982a262.170172 262.170172 0 0 0 0 170.65593l-201.587317 42.663982a472.076965 472.076965 0 0 1 0-255.983894m-28.798188-49.49022a513.674348 513.674348 0 0 0 0 354.964334l291.60832-61.436135a220.146149 220.146149 0 0 1 0-231.878744L31.571347 334.485835z" fill="#5C2D51" /></svg>