<?xml version="1.0" encoding="iso-8859-1"?>
<!-- Uploaded to: SVG Repo, www.svgrepo.com, Generator: SVG Repo Mixer Tools -->
<svg version="1.1" id="Layer_1" xmlns="http://www.w3.org/2000/svg" xmlns:xlink="http://www.w3.org/1999/xlink" 
	 viewBox="0 0 512 512" xml:space="preserve">
<rect x="212.737" style="fill:#0E0A57;" width="86.47" height="87.898"/>
<rect x="127.706" y="151.297" style="fill:#3D51CC;" width="256.587" height="187.885"/>
<rect x="209.36" y="223.974" style="fill:#4C7FE1;" width="93.223" height="104.149"/>
<g>
	<rect x="107.115" y="460.8" style="fill:#E42105;" width="297.768" height="16.605"/>
	<rect x="73.908" y="495.395" style="fill:#E42105;" width="364.19" height="16.605"/>
</g>
<g>
	<path style="fill:#961300;" d="M155.136,410.727l-87.099,87.1c-3.242,3.244-3.242,8.5,0,11.742
		c1.621,1.621,3.746,2.431,5.871,2.431s4.25-0.81,5.871-2.431l87.099-87.1L155.136,410.727z"/>
	<path style="fill:#961300;" d="M443.963,497.827l-87.1-87.1l-11.741,11.742l87.1,87.1c1.621,1.621,3.746,2.431,5.871,2.431
		s4.25-0.81,5.871-2.431C447.205,506.325,447.205,501.069,443.963,497.827z"/>
</g>
<polygon style="fill:#353185;" points="407.596,317.046 104.403,317.046 92.751,419.506 255.999,442.812 419.248,419.506 "/>
<g>
	<path style="fill:#0E0A57;" d="M323.58,317.488l4.309,80.772c0.236,4.429,3.9,7.861,8.284,7.861c0.148,0,0.299-0.003,0.449-0.012
		c4.579-0.245,8.093-4.155,7.849-8.733l-4.285-80.33h-16.607C323.579,317.193,323.572,317.339,323.58,317.488z"/>
	<path style="fill:#0E0A57;" d="M264.29,409.263l-0.012-92.218h-16.605c0,0.001,0.012,92.22,0.012,92.22
		c0,4.586,3.719,8.303,8.304,8.302C260.574,417.566,264.291,413.849,264.29,409.263z"/>
	<path style="fill:#0E0A57;" d="M171.764,317.046l-4.831,80.186c-0.276,4.578,3.21,8.511,7.788,8.788
		c0.17,0.011,0.339,0.016,0.507,0.016c4.357,0,8.015-3.396,8.279-7.803l4.862-80.686c0.01-0.168,0.004-0.333,0.004-0.499h-16.61
		V317.046z"/>
</g>
<circle style="fill:#353185;" cx="255.977" cy="151.297" r="95.824"/>
<circle style="fill:#3D51CC;" cx="255.977" cy="151.297" r="37.565"/>
<g>
	<circle style="fill:#FFD117;" cx="127.706" cy="247.133" r="26.871"/>
	<circle style="fill:#FFD117;" cx="384.293" cy="247.133" r="26.871"/>
</g>
</svg>