<?xml version="1.0" encoding="iso-8859-1"?>
<!-- Uploaded to: SVG Repo, www.svgrepo.com, Generator: SVG Repo Mixer Tools -->
<svg version="1.1" id="Layer_1" xmlns="http://www.w3.org/2000/svg" xmlns:xlink="http://www.w3.org/1999/xlink" 
	 viewBox="0 0 512 512" xml:space="preserve">
<g>
	<rect x="84.722" y="441.952" style="fill:#0E0A57;" width="72.231" height="70.048"/>
	<rect x="353.168" y="441.952" style="fill:#0E0A57;" width="72.22" height="70.048"/>
</g>
<rect x="39.711" style="fill:#FCDED6;" width="432.578" height="374.435"/>
<g>
	<path style="fill:#FF7039;" d="M39.711,253.327v-43.035c0-4.661-3.779-8.44-8.44-8.44s-8.44,3.779-8.44,8.44v51.475
		c0,4.661,3.779,8.44,8.44,8.44h53.451v-16.879H39.711z"/>
	<path style="fill:#FF7039;" d="M472.289,253.327v-43.035c0-4.661,3.779-8.44,8.44-8.44s8.44,3.779,8.44,8.44v51.475
		c0,4.661-3.779,8.44-8.44,8.44h-53.451v-16.879H472.289z"/>
</g>
<path style="fill:#E42105;" d="M399.146,115.341H112.854c-21.662,0-39.385,17.723-39.385,39.385v178.03l39.115,24.801
	l-39.115,16.879v33.758h365.062v-33.758l-39.115-16.879l39.115-24.801v-178.03C438.531,133.064,420.808,115.341,399.146,115.341z"/>
<path style="fill:#FFFFFF;" d="M247.56,132.22H112.854c-12.41,0-22.505,10.096-22.505,22.505v107.042H247.56V132.22z"/>
<path style="fill:#B8DDFF;" d="M399.146,132.22H264.44v129.547h157.212V154.725C421.652,142.316,411.556,132.22,399.146,132.22z"/>
<rect x="73.469" y="408.193" style="fill:#4C7FE1;" width="365.062" height="45.011"/>
<g>
	<path style="fill:#FF7039;" d="M168.847,374.435H73.469v-41.68h53.698C150.19,332.755,168.847,351.412,168.847,374.435z"/>
	<path style="fill:#FF7039;" d="M438.531,332.755v41.68h-95.378c0-23.023,18.657-41.68,41.68-41.68H438.531z"/>
</g>
</svg>