<?xml version="1.0" encoding="iso-8859-1"?>
<!-- Uploaded to: SVG Repo, www.svgrepo.com, Generator: SVG Repo Mixer Tools -->
<svg version="1.1" id="Layer_1" xmlns="http://www.w3.org/2000/svg" xmlns:xlink="http://www.w3.org/1999/xlink" 
	 viewBox="0 0 512 512" xml:space="preserve">
<path style="fill:#FF7039;" d="M330.017,16.379C327.775,7.371,318.345,0,309.061,0H202.94c-9.284,0-18.714,7.371-20.957,16.379
	l-12.731,51.137L256,101.275l86.749-33.758L330.017,16.379z"/>
<g>
	<path style="fill:#FFB367;" d="M502.998,175.049h-52.135v16.879h52.135c4.662,0,8.44-3.779,8.44-8.44
		S507.66,175.049,502.998,175.049z"/>
	<path style="fill:#FFB367;" d="M9.002,175.049c-4.661,0-8.44,3.779-8.44,8.44s3.779,8.44,8.44,8.44h52.135v-16.879H9.002z"/>
</g>
<path style="fill:#FFD117;" d="M505.946,269.008L441.209,99.092c-6.56-17.363-27.119-31.575-45.686-31.575H116.477
	c-18.567,0-39.205,14.178-45.855,31.519L5.964,268.974C2.678,277.662,0,292.358,0,301.641v16.429l256,33.758l256-33.758v-16.429
	C512,292.358,509.277,277.673,505.946,269.008z"/>
<path style="fill:#FFFFFF;" d="M468.158,217.246L425.42,105.058c-4.087-10.814-18.336-20.662-29.896-20.662H116.477
	c-11.599,0-25.943,9.859-30.079,20.642L43.652,217.246H468.158z"/>
<g>
	<rect x="11.253" y="430.699" style="fill:#0E0A57;" width="77.543" height="81.301"/>
	<rect x="423.205" y="430.699" style="fill:#0E0A57;" width="77.543" height="81.301"/>
</g>
<polygon style="fill:#FFB367;" points="70.026,318.07 441.974,318.07 386.791,373.254 125.209,373.254 "/>
<g>
	<path style="fill:#FF7039;" d="M125.209,373.254l-62.605,22.505L0,373.254V318.07h70.026
		C100.498,318.07,125.209,342.781,125.209,373.254z"/>
	<path style="fill:#FF7039;" d="M512,318.07v55.184l-62.605,22.505l-62.605-22.505c0-30.472,24.711-55.184,55.183-55.184H512z"/>
</g>
<rect y="373.254" style="fill:#4C7FE1;" width="512" height="79.951"/>
<path style="fill:#FFB367;" d="M299.556,42.198h-87.111c-4.661,0-8.44-3.779-8.44-8.44s3.779-8.44,8.44-8.44h87.111
	c4.661,0,8.44,3.779,8.44,8.44S304.217,42.198,299.556,42.198z"/>
<path style="fill:#5BACF5;" d="M88.797,421.669H33.758c-4.661,0-8.44-3.779-8.44-8.44s3.779-8.44,8.44-8.44h55.038
	c4.661,0,8.44,3.779,8.44,8.44S93.457,421.669,88.797,421.669z"/>
<path style="fill:#3D51CC;" d="M389.445,421.669h-266.89c-4.661,0-8.44-3.779-8.44-8.44s3.779-8.44,8.44-8.44h266.89
	c4.661,0,8.44,3.779,8.44,8.44S394.106,421.669,389.445,421.669z"/>
<path style="fill:#5BACF5;" d="M478.242,421.669h-55.038c-4.661,0-8.44-3.779-8.44-8.44s3.779-8.44,8.44-8.44h55.038
	c4.661,0,8.44,3.779,8.44,8.44S482.903,421.669,478.242,421.669z"/>
</svg>