<?xml version="1.0" encoding="iso-8859-1"?>
<!-- Uploaded to: SVG Repo, www.svgrepo.com, Generator: SVG Repo Mixer Tools -->
<svg version="1.1" id="Layer_1" xmlns="http://www.w3.org/2000/svg" xmlns:xlink="http://www.w3.org/1999/xlink" 
	 viewBox="0 0 512 512" xml:space="preserve">
<g>
	<path style="fill:#3D51CC;" d="M48.995,33.211c-4.586,0-8.303,3.716-8.303,8.303s3.716,8.303,8.303,8.303h71.241V33.211H48.995z"/>
	<path style="fill:#3D51CC;" d="M463.005,33.211h-71.239v16.605h71.241c4.586,0,8.303-3.716,8.303-8.303
		S467.592,33.211,463.005,33.211z"/>
</g>
<path style="fill:#0E0A57;" d="M349.724,94.639h-187.45c-12.022,0-26.088-8.191-32.022-18.648l-27.889-49.149
	c-3.041-5.358-11.421-10.237-17.581-10.237H48.995c-4.586,0-8.303-3.716-8.303-8.303S44.408,0,48.995,0h35.788
	c12.022,0,26.088,8.191,32.023,18.648l27.889,49.149c3.04,5.358,11.419,10.237,17.58,10.237h187.45
	c6.161,0,14.541-4.879,17.58-10.237l27.892-49.149C401.129,8.191,415.194,0,427.216,0h35.789c4.586,0,8.303,3.716,8.303,8.303
	s-3.716,8.303-8.303,8.303h-35.789c-6.159,0-14.539,4.879-17.578,10.237l-27.892,49.149
	C375.814,86.448,361.748,94.639,349.724,94.639z"/>
<polygon style="fill:#353185;" points="295.953,53.126 216.047,53.126 203.132,130.618 308.868,130.618 "/>
<path style="fill:#E42105;" d="M493.809,198.811l-6.258-57.253c-1.323-12.105-12.369-22.01-24.546-22.01H48.995
	c-12.177,0-23.223,9.905-24.546,22.01l-6.258,57.253c-1.323,12.105,7.441,23.527,19.477,25.381l121.821,18.77l34.416,113.169
	h124.192l34.417-113.17l121.821-18.77C486.369,222.338,495.133,210.915,493.809,198.811z"/>
<rect x="122.382" y="381.039" style="fill:#3D51CC;" width="267.236" height="16.605"/>
<path style="fill:#0E0A57;" d="M493.942,482.11c0,16.508-13.382,29.89-29.89,29.89h-55.617c-16.508,0-29.89-13.382-29.89-29.89
	V296.573c0-16.508,13.382-29.89,29.89-29.89h55.617c16.508,0,29.89,13.382,29.89,29.89V482.11z"/>
<g>
	<path style="fill:#353185;" d="M408.545,442.368h-29.999v16.605h29.999c4.586,0,8.303-3.716,8.303-8.303
		S413.131,442.368,408.545,442.368z"/>
	<path style="fill:#353185;" d="M408.545,381.039h-29.999v16.605h29.999c4.586,0,8.303-3.716,8.303-8.303
		S413.131,381.039,408.545,381.039z"/>
	<path style="fill:#353185;" d="M416.848,328.012c0-4.586-3.716-8.303-8.303-8.303h-29.999v16.605h29.999
		C413.131,336.315,416.848,332.597,416.848,328.012z"/>
	<path style="fill:#353185;" d="M455.64,450.671c0,4.586,3.716,8.303,8.303,8.303h29.999v-16.605h-29.999
		C459.356,442.368,455.64,446.084,455.64,450.671z"/>
	<path style="fill:#353185;" d="M455.64,389.341c0,4.586,3.716,8.303,8.303,8.303h29.999v-16.605h-29.999
		C459.356,381.039,455.64,384.756,455.64,389.341z"/>
	<path style="fill:#353185;" d="M463.943,319.709c-4.586,0-8.303,3.716-8.303,8.303c0,4.586,3.716,8.303,8.303,8.303h29.999v-16.605
		H463.943z"/>
</g>
<path style="fill:#0E0A57;" d="M133.454,482.11c0,16.508-13.382,29.89-29.89,29.89H47.948c-16.508,0-29.89-13.382-29.89-29.89
	V296.573c0-16.508,13.382-29.89,29.89-29.89h55.617c16.508,0,29.89,13.382,29.89,29.89V482.11z"/>
<g>
	<path style="fill:#353185;" d="M48.057,442.368H18.058v16.605h29.999c4.586,0,8.303-3.716,8.303-8.303
		S52.644,442.368,48.057,442.368z"/>
	<path style="fill:#353185;" d="M48.057,381.039H18.058v16.605h29.999c4.586,0,8.303-3.716,8.303-8.303
		S52.644,381.039,48.057,381.039z"/>
	<path style="fill:#353185;" d="M56.36,328.012c0-4.586-3.716-8.303-8.303-8.303H18.058v16.605h29.999
		C52.644,336.315,56.36,332.597,56.36,328.012z"/>
	<path style="fill:#353185;" d="M95.152,450.671c0,4.586,3.716,8.303,8.303,8.303h29.999v-16.605h-29.999
		C98.87,442.368,95.152,446.084,95.152,450.671z"/>
	<path style="fill:#353185;" d="M95.152,389.341c0,4.586,3.716,8.303,8.303,8.303h29.999v-16.605h-29.999
		C98.87,381.039,95.152,384.756,95.152,389.341z"/>
	<path style="fill:#353185;" d="M103.455,319.709c-4.586,0-8.303,3.716-8.303,8.303c0,4.586,3.716,8.303,8.303,8.303h29.999v-16.605
		H103.455z"/>
</g>
<polygon style="fill:#FFD117;" points="52.252,192.835 159.485,209.357 159.487,152.759 56.632,152.759 "/>
<g>
	<path style="fill:#961300;" d="M216.044,217.659c-4.586,0-8.303-3.717-8.303-8.303l0.003-56.598c0-4.586,3.717-8.303,8.303-8.303
		c4.586,0,8.303,3.717,8.303,8.303l-0.003,56.598C224.347,213.943,220.629,217.659,216.044,217.659z"/>
	<path style="fill:#961300;" d="M256,217.593c-4.586,0-8.303-3.716-8.303-8.303v-56.531c0-4.586,3.716-8.303,8.303-8.303
		c4.586,0,8.303,3.716,8.303,8.303v56.53C264.303,213.875,260.586,217.593,256,217.593z"/>
</g>
<polygon style="fill:#FFD117;" points="459.748,192.835 352.515,209.357 352.513,152.759 455.368,152.759 "/>
<path style="fill:#961300;" d="M295.955,217.659c-4.585,0-8.303-3.716-8.303-8.303l-0.002-56.598c0-4.585,3.716-8.303,8.303-8.303
	c4.585,0,8.303,3.716,8.303,8.303l0.002,56.598C304.258,213.942,300.54,217.659,295.955,217.659z"/>
</svg>