<?xml version="1.0" encoding="utf-8"?>
<!-- Uploaded to: SVG Repo, www.svgrepo.com, Generator: SVG Repo Mixer Tools -->
<svg width="800px" height="800px" viewBox="0 0 1024 1024" class="icon"  version="1.1" xmlns="http://www.w3.org/2000/svg"><path d="M785.6 268.608H157.568a33.28 33.28 0 0 0-33.984 32.448v389.056c0 17.92 15.232 32.448 33.984 32.448h710.976a33.28 33.28 0 0 0 33.984-32.448v-265.6l-116.928-155.904z" fill="#E1B030" /><path d="M849.472 563.968h54.144v62.592h-54.144z" fill="#D67320" /><path d="M299.264 721.984m-68.224 0a68.224 68.224 0 1 0 136.448 0 68.224 68.224 0 1 0-136.448 0Z" fill="#C5CDD5" /><path d="M299.264 811.136a89.28 89.28 0 0 1 0-178.368 89.28 89.28 0 0 1 0 178.368z m0-136.512l0 0z" fill="#607385" /><path d="M747.264 721.984m-68.224 0a68.224 68.224 0 1 0 136.448 0 68.224 68.224 0 1 0-136.448 0Z" fill="#C5CDD5" /><path d="M747.264 811.136a89.28 89.28 0 0 1-89.216-89.152c0-49.216 40-89.216 89.216-89.216 49.152 0 89.152 40 89.152 89.216a89.344 89.344 0 0 1-89.152 89.152z m0-136.512a47.36 47.36 0 0 0 0 94.592 47.36 47.36 0 0 0 0-94.592z" fill="#607385" /><path d="M374.976 497.536a14.848 14.848 0 0 1-14.592 15.04H205.376a14.848 14.848 0 0 1-14.592-15.04v-152.96c0-8.32 6.528-15.04 14.592-15.04h155.008c8 0 14.592 6.72 14.592 15.04v152.96zM604.224 497.536a14.848 14.848 0 0 1-14.592 15.04H434.688a14.784 14.784 0 0 1-14.592-15.04v-152.96c0-8.32 6.528-15.04 14.592-15.04h155.008c8.064 0 14.592 6.72 14.592 15.04v152.96zM777.92 329.536h-114.048a14.848 14.848 0 0 0-14.592 15.04v153.024c0 8.256 6.592 15.04 14.592 15.04h155.072a14.848 14.848 0 0 0 14.592-15.04V412.736l-55.616-83.2z" fill="#957267" /><path d="M120.384 563.968h54.08v62.592h-54.08z" fill="#D0431F" /></svg>