<?xml version="1.0" encoding="iso-8859-1"?>
<!-- Uploaded to: SVG Repo, www.svgrepo.com, Generator: SVG Repo Mixer Tools -->
<svg version="1.1" id="Layer_1" xmlns="http://www.w3.org/2000/svg" xmlns:xlink="http://www.w3.org/1999/xlink" 
	 viewBox="0 0 512 512" xml:space="preserve">
<g>
	<path style="fill:#FF7039;" d="M348.46,219.785l22.141,153.379c20.438,0,37.006-16.568,37.006-37.006v-94.231L348.46,219.785z"/>
	<path style="fill:#FF7039;" d="M271.095,241.926v94.231c0,20.438,16.568,37.006,37.007,37.006l22.141-153.379L271.095,241.926z"/>
</g>
<g>
	<rect x="308.097" y="219.789" style="fill:#E42105;" width="62.503" height="153.379"/>
	<path style="fill:#E42105;" d="M194.432,97.134H91.352c-26.148,16.922-43.453,46.345-43.453,79.809v164.925
		c0,14.388,9.276,26.709,22.141,31.296h145.705c12.865-4.585,22.141-16.907,22.141-31.296V176.943
		C237.885,143.478,220.581,114.055,194.432,97.134z"/>
</g>
<path style="fill:#353185;" d="M204.417,60.796H81.366c-6.576,0-14.612-3.484-19.106-8.286L41.853,30.704
	c-1.351-1.445-5.005-3.029-6.982-3.029H8.303C3.717,27.675,0,23.958,0,19.372s3.717-8.303,8.303-8.303h26.569
	c6.577,0,14.613,3.485,19.107,8.288l20.406,21.804c1.351,1.444,5.005,3.028,6.982,3.028h123.05c1.977,0,5.631-1.585,6.983-3.028
	l20.406-21.805c4.493-4.802,12.528-8.287,19.106-8.287h26.569c4.585,0,8.303,3.716,8.303,8.303s-3.717,8.303-8.303,8.303h-26.569
	c-1.977,0-5.631,1.585-6.982,3.028l-20.407,21.806C219.029,57.311,210.993,60.796,204.417,60.796z"/>
<path style="fill:#0E0A57;" d="M103.25,328.584v132.705c0,21.894,17.748,39.642,39.642,39.642c21.894,0,39.642-17.748,39.642-39.642
	V328.584H103.25z"/>
<g>
	<path style="fill:#FF7039;" d="M142.892,180.144c-34.122,0-61.782,27.661-61.782,61.782v97.728h123.564v-97.728
		C204.674,207.804,177.013,180.144,142.892,180.144z"/>
	<circle style="fill:#FF7039;" cx="142.895" cy="81.953" r="53.724"/>
</g>
<circle style="fill:#FFD117;" cx="142.895" cy="81.953" r="20.511"/>
<path style="fill:#961300;" d="M142.892,221.656c4.585,0,8.303-3.716,8.303-8.303v-32.64c-2.718-0.365-5.485-0.571-8.303-0.571
	s-5.585,0.206-8.303,0.571v32.64C134.589,217.94,138.306,221.656,142.892,221.656z"/>
<path style="fill:#E42105;" d="M407.607,165.39c0-37.696-30.559-68.256-68.256-68.256s-68.256,30.559-68.256,68.256v14.753
	l68.256,22.141l68.256-22.141V165.39z"/>
<rect x="271.1" y="180.146" style="fill:#961300;" width="136.508" height="61.782"/>
<path style="fill:#0E0A57;" d="M446.353,362.094v108.781c0,16.599,13.456,30.056,30.056,30.056c16.6,0,30.056-13.457,30.056-30.056
	V362.094H446.353z"/>
<path style="fill:#FF7039;" d="M476.409,241.926c-19.656,0-35.591,15.935-35.591,35.591v95.647H512v-95.647
	C512,257.86,496.065,241.926,476.409,241.926z"/>
<path style="fill:#961300;" d="M476.409,283.439c4.585,0,8.303-3.716,8.303-8.303v-32.228c-2.665-0.638-5.443-0.984-8.303-0.984
	c-2.859,0-5.638,0.347-8.303,0.984v32.228C468.106,279.723,471.824,283.439,476.409,283.439z"/>
</svg>