<?xml version="1.0" encoding="iso-8859-1"?>
<!-- Uploaded to: SVG Repo, www.svgrepo.com, Generator: SVG Repo Mixer Tools -->
<svg version="1.1" id="Layer_1" xmlns="http://www.w3.org/2000/svg" xmlns:xlink="http://www.w3.org/1999/xlink" 
	 viewBox="0 0 512 512" xml:space="preserve">
<g>
	<rect x="11.253" y="385.1" style="fill:#0E0A57;" width="88.797" height="92.554"/>
	<rect x="411.952" y="385.1" style="fill:#0E0A57;" width="88.797" height="92.554"/>
</g>
<g>
	<path style="fill:#3D51CC;" d="M22.505,142.254c-4.661,0-8.44,3.779-8.44,8.44s3.779,8.44,8.44,8.44h51.907v-16.879H22.505z"/>
	<path style="fill:#3D51CC;" d="M489.495,142.254h-51.907v16.879h51.907c4.661,0,8.44-3.779,8.44-8.44
		S494.155,142.254,489.495,142.254z"/>
</g>
<path style="fill:#4C7FE1;" d="M512,262.844c0-6.189-2.577-15.608-5.716-20.941l-34.118-57.828l-45.72-126.447
	c-4.625-12.806-19.557-23.282-33.173-23.282H118.728c-13.616,0-28.548,10.476-33.173,23.282l-45.72,126.447L5.716,241.903
	C2.577,247.237,0,256.655,0,262.844l68.946,27.592L0,318.028v41.703L117.377,407.6h45.011L256,370.983l93.612,36.616h45.011
	L512,359.731v-41.703l-68.912-27.592L512,262.844z"/>
<path style="fill:#3D51CC;" d="M360.86,275.831h-96.42v-25.319c0-4.661-3.779-8.44-8.44-8.44c-4.661,0-8.44,3.779-8.44,8.44v25.319
	h-96.42c-4.661,0-8.44,3.779-8.44,8.44s3.779,8.44,8.44,8.44h96.42v25.319c0,4.661,3.779,8.44,8.44,8.44
	c4.661,0,8.44-3.779,8.44-8.44V292.71h96.42c4.661,0,8.44-3.779,8.44-8.44S365.521,275.831,360.86,275.831z"/>
<path style="fill:#FFFFFF;" d="M454.217,184.075L410.57,63.363c-2.212-6.125-10.78-12.137-17.298-12.137H118.728
	c-6.518,0-15.085,6.012-17.3,12.143L57.784,184.075H454.217z"/>
<g>
	<path style="fill:#FFD117;" d="M102.704,318.028H0v-55.183h47.52C77.993,262.844,102.704,287.556,102.704,318.028z"/>
	<path style="fill:#FFD117;" d="M512,262.844v55.183H409.33c0-30.472,24.711-55.183,55.184-55.183H512L512,262.844z"/>
</g>
<polygon style="fill:#B8DDFF;" points="360.864,359.731 349.612,407.6 162.388,407.6 151.136,359.731 "/>
<g>
	<polygon style="fill:#3D51CC;" points="106.125,359.731 117.377,407.6 0,407.6 0,359.731 	"/>
	<polygon style="fill:#3D51CC;" points="512,359.731 512,407.6 394.623,407.6 405.875,359.731 	"/>
</g>
</svg>