<?xml version="1.0" encoding="iso-8859-1"?>
<!-- Uploaded to: SVG Repo, www.svgrepo.com, Generator: SVG Repo Mixer Tools -->
<svg version="1.1" id="Layer_1" xmlns="http://www.w3.org/2000/svg" xmlns:xlink="http://www.w3.org/1999/xlink" 
	 viewBox="0 0 512 512" xml:space="preserve">
<g>
	<rect x="414.427" y="45.665" style="fill:#3D51CC;" width="44.281" height="16.605"/>
	<path style="fill:#3D51CC;" d="M401.14,180.445h-42.808V163.84h42.808c2.747,0,4.982-2.235,4.982-4.982V21.587
		c0-2.747-2.235-4.982-4.982-4.982h-42.808V0h42.808c11.903,0,21.587,9.684,21.587,21.587v137.271
		C422.727,170.761,413.042,180.445,401.14,180.445z"/>
</g>
<path style="fill:#4C7FE1;" d="M103.852,0c-4.585,0-8.303,3.716-8.303,8.303v80.651h16.605V8.303C112.155,3.716,108.438,0,103.852,0
	z"/>
<path style="fill:#0E0A57;" d="M506.939,482.11c0,16.508-13.382,29.89-29.89,29.89h-55.617c-16.508,0-29.89-13.382-29.89-29.89
	V235.243c0-16.508,13.382-29.89,29.89-29.89h55.617c16.508,0,29.89,13.382,29.89,29.89V482.11z"/>
<g>
	<path style="fill:#353185;" d="M421.542,258.38h-29.999v16.605h29.999c4.585,0,8.303-3.716,8.303-8.303
		C429.844,262.096,426.127,258.38,421.542,258.38z"/>
	<path style="fill:#353185;" d="M421.542,442.368h-29.999v16.605h29.999c4.585,0,8.303-3.716,8.303-8.303
		S426.127,442.368,421.542,442.368z"/>
	<path style="fill:#353185;" d="M421.542,381.039h-29.999v16.605h29.999c4.585,0,8.303-3.716,8.303-8.303
		S426.127,381.039,421.542,381.039z"/>
	<path style="fill:#353185;" d="M421.542,319.709h-29.999v16.605h29.999c4.585,0,8.303-3.716,8.303-8.303
		C429.844,323.426,426.127,319.709,421.542,319.709z"/>
	<path style="fill:#353185;" d="M476.938,258.38c-4.585,0-8.303,3.716-8.303,8.303c0,4.586,3.717,8.303,8.303,8.303h29.999V258.38
		H476.938z"/>
	<path style="fill:#353185;" d="M468.636,450.671c0,4.586,3.717,8.303,8.303,8.303h29.999v-16.605h-29.999
		C472.353,442.368,468.636,446.084,468.636,450.671z"/>
	<path style="fill:#353185;" d="M468.636,389.341c0,4.586,3.717,8.303,8.303,8.303h29.999v-16.605h-29.999
		C472.353,381.039,468.636,384.756,468.636,389.341z"/>
	<path style="fill:#353185;" d="M468.636,328.012c0,4.586,3.717,8.303,8.303,8.303h29.999v-16.605h-29.999
		C472.353,319.709,468.636,323.426,468.636,328.012z"/>
</g>
<path style="fill:#FF7039;" d="M358.332,0H153.669c-4.585,0-8.303,3.716-8.303,8.303v344.839h221.268V8.303
	C366.635,3.716,362.918,0,358.332,0z M161.971,132.065V16.605h188.057v115.46H161.971z"/>
<rect x="186.877" y="205.354" style="fill:#E42105;" width="138.246" height="180.999"/>
<path style="fill:#FFD117;" d="M325.121,202.663c0-20.648-16.739-37.388-37.388-37.388h-63.466
	c-20.648,0-37.388,16.739-37.388,37.388v2.69h138.241V202.663z"/>
<g>
	<path style="fill:#961300;" d="M232.961,361.444c-4.585,0-8.303-3.716-8.303-8.303V238.564c0-4.586,3.717-8.303,8.303-8.303
		c4.585,0,8.303,3.716,8.303,8.303v114.577C241.263,357.728,237.546,361.444,232.961,361.444z"/>
	<path style="fill:#961300;" d="M279.041,361.444c-4.586,0-8.303-3.716-8.303-8.303V238.564c0-4.586,3.716-8.303,8.303-8.303
		c4.586,0,8.303,3.716,8.303,8.303v114.577C287.343,357.728,283.626,361.444,279.041,361.444z"/>
</g>
<rect x="87.245" y="77.879" style="fill:#3D51CC;" width="33.211" height="157.364"/>
<path style="fill:#4C7FE1;" d="M489.333,76.385c0,5.503-4.46,9.963-9.963,9.963h-21.772c-5.503,0-9.963-4.46-9.963-9.963V31.55
	c0-5.503,4.46-9.963,9.963-9.963h21.772c5.503,0,9.963,4.46,9.963,9.963V76.385z"/>
<path style="fill:#0E0A57;" d="M120.458,482.11c0,16.508-13.382,29.89-29.89,29.89H34.951c-16.508,0-29.89-13.382-29.89-29.89
	V235.243c0-16.508,13.382-29.89,29.89-29.89h55.617c16.508,0,29.89,13.382,29.89,29.89V482.11z"/>
<g>
	<path style="fill:#353185;" d="M35.062,258.38h-30v16.605h29.999c4.585,0,8.303-3.716,8.303-8.303
		C43.363,262.096,39.647,258.38,35.062,258.38z"/>
	<path style="fill:#353185;" d="M35.062,442.368h-30v16.605h29.999c4.585,0,8.303-3.716,8.303-8.303S39.647,442.368,35.062,442.368z
		"/>
	<path style="fill:#353185;" d="M35.062,381.039h-30v16.605h29.999c4.585,0,8.303-3.716,8.303-8.303S39.647,381.039,35.062,381.039z
		"/>
	<path style="fill:#353185;" d="M35.062,319.709h-30v16.605h29.999c4.585,0,8.303-3.716,8.303-8.303
		C43.363,323.426,39.647,319.709,35.062,319.709z"/>
	<path style="fill:#353185;" d="M90.458,258.38c-4.585,0-8.303,3.716-8.303,8.303c0,4.586,3.717,8.303,8.303,8.303h29.999V258.38
		H90.458z"/>
	<path style="fill:#353185;" d="M82.156,450.671c0,4.586,3.717,8.303,8.303,8.303h29.999v-16.605H90.458
		C85.873,442.368,82.156,446.084,82.156,450.671z"/>
	<path style="fill:#353185;" d="M82.156,389.341c0,4.586,3.717,8.303,8.303,8.303h29.999v-16.605H90.458
		C85.873,381.039,82.156,384.756,82.156,389.341z"/>
	<path style="fill:#353185;" d="M82.156,328.012c0,4.586,3.717,8.303,8.303,8.303h29.999v-16.605H90.458
		C85.873,319.709,82.156,323.426,82.156,328.012z"/>
</g>
</svg>