<?xml version="1.0" encoding="iso-8859-1"?>
<!-- Uploaded to: SVG Repo, www.svgrepo.com, Generator: SVG Repo Mixer Tools -->
<svg version="1.1" id="Layer_1" xmlns="http://www.w3.org/2000/svg" xmlns:xlink="http://www.w3.org/1999/xlink" 
	 viewBox="0 0 512 512" xml:space="preserve">
<g>
	<path style="fill:#353185;" d="M123.338,8.303c0,12.826-10.435,23.261-23.261,23.261H77.803c-4.586,0-8.303,3.716-8.303,8.303
		s3.716,8.303,8.303,8.303h22.274c21.982,0,39.866-17.883,39.866-39.866H123.338z"/>
	<path style="fill:#353185;" d="M434.197,31.564h-22.274c-12.826,0-23.261-10.435-23.261-23.261h-16.605
		c0,21.982,17.883,39.866,39.866,39.866h22.274c4.586,0,8.303-3.716,8.303-8.303S438.782,31.564,434.197,31.564z"/>
	<path style="fill:#353185;" d="M78.876,266.843c-9.171,0-16.605,7.435-16.605,16.605v211.946c0,9.171,7.435,16.605,16.605,16.605
		s16.605-7.435,16.605-16.605V283.449C95.481,274.277,88.046,266.843,78.876,266.843z"/>
	<path style="fill:#353185;" d="M433.124,266.843c-9.171,0-16.605,7.435-16.605,16.605v211.946c0,9.171,7.435,16.605,16.605,16.605
		c9.171,0,16.605-7.435,16.605-16.605V283.449C449.73,274.277,442.295,266.843,433.124,266.843z"/>
	<path style="fill:#353185;" d="M305.816,95.218h-99.632c-9.171,0-16.605,7.435-16.605,16.605s7.435,16.605,16.605,16.605h99.632
		c9.171,0,16.605-7.435,16.605-16.605S314.987,95.218,305.816,95.218z"/>
</g>
<rect x="95.481" y="205.951" style="fill:#FF7039;" width="321.038" height="111.511"/>
<path style="fill:#0E0A57;" d="M307.439,48.169H204.561c-19.136,0-35.167-13.551-38.997-31.564H77.803
	c-4.586,0-8.303-3.716-8.303-8.303S73.217,0,77.803,0h95.194c4.586,0,8.303,3.716,8.303,8.303c0,12.826,10.435,23.261,23.261,23.261
	h102.878c12.826,0,23.261-10.435,23.261-23.261c0-4.586,3.716-8.303,8.303-8.303h95.194c4.586,0,8.303,3.716,8.303,8.303
	s-3.716,8.303-8.303,8.303h-87.761C342.606,34.618,326.575,48.169,307.439,48.169z"/>
<path style="fill:#353185;" d="M256,20.493c-4.586,0-8.303,3.716-8.303,8.303v77.492h16.605V28.796
	C264.303,24.21,260.586,20.493,256,20.493z"/>
<rect x="239.395" y="95.215" style="fill:#E42105;" width="33.211" height="63.776"/>
<path style="fill:#353185;" d="M256,189.351c-9.171,0-16.605,7.435-16.605,16.605v289.438c0,9.171,7.435,16.605,16.605,16.605
	c9.171,0,16.605-7.435,16.605-16.605V205.957C272.605,196.785,265.171,189.351,256,189.351z"/>
<path id="SVGCleanerId_0" style="fill:#0E0A57;" d="M350.097,342.372h-35.978l-5.535,8.303l5.535,8.303h35.978
	c4.586,0,8.303-3.716,8.303-8.303S354.684,342.372,350.097,342.372z"/>
<g>
	<path id="SVGCleanerId_0_1_" style="fill:#0E0A57;" d="M350.097,342.372h-35.978l-5.535,8.303l5.535,8.303h35.978
		c4.586,0,8.303-3.716,8.303-8.303S354.684,342.372,350.097,342.372z"/>
</g>
<path style="fill:#0E0A57;" d="M161.903,342.372h35.978l5.535,8.303l-5.535,8.303h-35.978c-4.586,0-8.303-3.716-8.303-8.303
	S157.317,342.372,161.903,342.372z"/>
<path style="fill:#E42105;" d="M256,147.838c-32.047,0-58.119,26.073-58.119,58.119v153.022h8.303c4.585,0,8.303-3.716,8.303-8.303
	V205.957c0-22.891,18.622-41.514,41.514-41.514s41.514,18.622,41.514,41.514v144.719c0,4.586,3.716,8.303,8.303,8.303h8.303V205.957
	C314.119,173.911,288.046,147.838,256,147.838z"/>
</svg>