<?xml version="1.0" encoding="iso-8859-1"?>
<!-- Uploaded to: SVG Repo, www.svgrepo.com, Generator: SVG Repo Mixer Tools -->
<svg version="1.1" id="Layer_1" xmlns="http://www.w3.org/2000/svg" xmlns:xlink="http://www.w3.org/1999/xlink" 
	 viewBox="0 0 512.004 512.004" xml:space="preserve">
<g>
	<path style="fill:#4C7FE1;" d="M214.875,5.032c-1.808-4.216-6.689-6.165-10.903-4.358c-4.214,1.808-6.165,6.689-4.358,10.903
		l26.887,62.701l15.261-6.545L214.875,5.032z"/>
	<path style="fill:#4C7FE1;" d="M310.382,0.674c-4.214-1.807-9.096,0.144-10.903,4.358l-26.888,62.701l15.26,6.545l26.888-62.701
		C316.547,7.363,314.597,2.482,310.382,0.674z"/>
</g>
<rect x="162.967" y="59.934" style="fill:#353185;" width="188.426" height="55.351"/>
<g>
	<rect x="360.692" y="450.292" style="fill:#0E0A57;" width="62.17" height="61.712"/>
	<rect x="89.14" y="450.292" style="fill:#0E0A57;" width="62.17" height="61.712"/>
	<path style="fill:#0E0A57;" d="M465.265,249.703c-4.586,0-8.303-3.717-8.303-8.303v-56.325c0-3.358-2.732-6.089-6.089-6.089H61.131
		c-3.358,0-6.089,2.731-6.089,6.089v56.325c0,4.585-3.717,8.303-8.303,8.303s-8.303-3.717-8.303-8.303v-56.325
		c0-12.514,10.18-22.694,22.694-22.694h389.743c12.514,0,22.694,10.18,22.694,22.694v56.325
		C473.567,245.986,469.851,249.703,465.265,249.703z"/>
</g>
<path style="fill:#E42105;" d="M388.943,93.146H123.061c-23.988,0-43.614,19.626-43.614,43.614v245.739l11.07,19.373l-11.07,19.373
	v29.043c0,6.089,4.982,11.07,11.07,11.07h330.972c6.089,0,11.07-4.982,11.07-11.07v-29.043l-11.07-19.373l11.07-19.373V136.76
	C432.558,112.772,412.931,93.146,388.943,93.146z"/>
<g>
	<path style="fill:#FFD117;" d="M140.238,382.499H79.447v38.746h60.792c6.089,0,11.07-4.982,11.07-11.07V393.57
		C151.308,387.481,146.326,382.499,140.238,382.499z"/>
	<path style="fill:#FFD117;" d="M371.767,382.499c-6.089,0-11.07,4.982-11.07,11.07v16.605c0,6.089,4.982,11.07,11.07,11.07h60.792
		v-38.746H371.767z"/>
</g>
<path style="fill:#FF7039;" d="M397.148,140.218H114.857c-4.585,0-8.303-3.717-8.303-8.303c0-4.585,3.717-8.303,8.303-8.303h282.291
	c4.586,0,8.303,3.717,8.303,8.303C405.45,136.5,401.734,140.218,397.148,140.218z"/>
<rect x="96.047" y="170.681" style="fill:#FFFFFF;" width="151.651" height="171.699"/>
<rect x="264.304" y="170.681" style="fill:#B8DDFF;" width="151.651" height="171.699"/>
</svg>