<?xml version="1.0" encoding="iso-8859-1"?>
<!-- Uploaded to: SVG Repo, www.svgrepo.com, Generator: SVG Repo Mixer Tools -->
<svg height="800px" width="800px" version="1.1" id="Layer_1" xmlns="http://www.w3.org/2000/svg" xmlns:xlink="http://www.w3.org/1999/xlink" 
	 viewBox="0 0 512 512" xml:space="preserve">
<path style="fill:#3D51CC;" d="M256,114.485c-4.661,0-8.44,3.778-8.44,8.44v58.537h16.879v-58.537
	C264.44,118.263,260.661,114.485,256,114.485z"/>
<path style="fill:#353185;" d="M119.284,352.504v16.879c0,15.473,15.191,28.132,33.758,28.132h205.916
	c18.567,0,33.758-12.659,33.758-28.132v-16.879H119.284z"/>
<path style="fill:#FFD117;" d="M354.01,191.215c-4.444-11.553-18.207-21.005-30.585-21.005H188.575
	c-12.378,0-26.141,9.452-30.585,21.005l-25.679,66.766L256,280.486l123.689-22.505L354.01,191.215z"/>
<path style="fill:#353185;" d="M379.689,257.98H132.311C80.691,269.718,35.348,288.569,0,312.439l256,22.505l256-22.505
	C476.652,288.569,431.309,269.718,379.689,257.98z"/>
<path style="fill:#3D51CC;" d="M0,312.439c32.344,21.842,73.054,39.483,119.284,51.317h273.433
	c46.23-11.835,86.94-29.477,119.284-51.317H0z"/>
</svg>