<?xml version="1.0" encoding="iso-8859-1"?>
<!-- Uploaded to: SVG Repo, www.svgrepo.com, Generator: SVG Repo Mixer Tools -->
<svg version="1.1" id="Layer_1" xmlns="http://www.w3.org/2000/svg" xmlns:xlink="http://www.w3.org/1999/xlink" 
	 viewBox="0 0 512 512" xml:space="preserve">
<path style="fill:#353185;" d="M462.825,111.439C458.636,48.95,406.296,0,343.667,0H168.333C105.704,0,53.363,48.95,49.174,111.439
	l-26.38,393.543h39.551h387.31h39.551L462.825,111.439z"/>
<g>
	<rect x="106.734" y="460.666" style="fill:#E42105;" width="298.528" height="16.648"/>
	<rect x="73.439" y="495.349" style="fill:#E42105;" width="365.119" height="16.648"/>
</g>
<g>
	<path style="fill:#961300;" d="M154.879,410.469l-87.321,87.322c-3.251,3.252-3.251,8.521,0,11.772
		c1.625,1.625,3.756,2.437,5.886,2.437c2.13,0,4.261-0.812,5.886-2.437l87.321-87.322L154.879,410.469z"/>
	<path style="fill:#961300;" d="M444.442,497.789l-87.322-87.322l-11.771,11.772l87.322,87.322c1.625,1.625,3.756,2.437,5.886,2.437
		c2.13,0,4.261-0.812,5.886-2.437C447.693,506.311,447.693,501.041,444.442,497.789z"/>
</g>
<polygon style="fill:#FFD117;" points="112.627,184.991 102.576,334.937 256.001,357.134 409.424,334.937 399.373,184.991 
	256.001,162.794 "/>
<g>
	<polygon style="fill:#4C7FE1;" points="416.36,438.391 409.424,334.937 102.576,334.937 95.64,438.391 	"/>
	<path style="fill:#4C7FE1;" d="M396.389,140.476c-1.225-18.271-17.209-33.221-35.522-33.221H151.133
		c-18.313,0-34.298,14.95-35.522,33.221l-2.984,44.515h286.747L396.389,140.476z"/>
</g>
<path style="fill:#0E0A57;" d="M317.042,154.447H194.959c-4.597,0-8.324-3.727-8.324-8.324s3.727-8.324,8.324-8.324h122.084
	c4.597,0,8.324,3.727,8.324,8.324S321.639,154.447,317.042,154.447z"/>
<g>
	<circle style="fill:#FFD117;" cx="149.453" cy="386.661" r="16.648"/>
	<circle style="fill:#FFD117;" cx="362.544" cy="386.661" r="16.648"/>
</g>
</svg>