<?xml version="1.0" encoding="iso-8859-1"?>
<!-- Uploaded to: SVG Repo, www.svgrepo.com, Generator: SVG Repo Mixer Tools -->
<svg version="1.1" id="Layer_1" xmlns="http://www.w3.org/2000/svg" xmlns:xlink="http://www.w3.org/1999/xlink" 
	 viewBox="0 0 512 512" xml:space="preserve">
<g>
	<path style="fill:#5BACF5;" d="M503.652,152.53h-51.2v16.696h51.2c4.611,0,8.348-3.738,8.348-8.348
		C512,156.268,508.263,152.53,503.652,152.53z"/>
	<path style="fill:#5BACF5;" d="M8.348,152.53c-4.611,0-8.348,3.738-8.348,8.348c0,4.61,3.736,8.348,8.348,8.348h51.2V152.53H8.348z
		"/>
	<path style="fill:#5BACF5;" d="M472.876,160.879c-1.124-16.017-2.66-32-4.374-44.088l-11.398-80.941
		c-2.56-18.187-19.679-33.069-38.044-33.069H92.939c-18.365,0-35.484,14.881-38.044,33.069l-11.398,80.941
		c-1.714,12.088-3.25,28.071-4.374,44.088c-1.135,16.095-1.837,32.245-1.837,44.522v17.753l176.417,198.689l84.591-0.011
		l176.417-198.678v-17.753C474.713,193.124,474.012,176.974,472.876,160.879z"/>
</g>
<path style="fill:#B8DDFF;" d="M451.807,116.792l-11.398-80.941H264.348v125.028h191.833
	C455.057,144.863,453.521,128.879,451.807,116.792z"/>
<path style="fill:#FFFFFF;" d="M247.652,35.851H71.591l-11.398,80.941c-1.714,12.088-3.25,28.071-4.374,44.088h191.833V35.851z"/>
<g>
	<path style="fill:#3D51CC;" d="M213.704,399.571c0,0.011-176.417,22.272-176.417,22.272V223.154
		C134.723,223.154,213.704,302.136,213.704,399.571z"/>
	<path style="fill:#3D51CC;" d="M474.713,223.154v198.689l-176.417-22.261C298.296,302.136,377.277,223.154,474.713,223.154z"/>
</g>
<circle style="fill:#FFD117;" cx="407.93" cy="308.491" r="27.826"/>
<circle style="fill:#4C7FE1;" cx="256" cy="249.622" r="36.262"/>
<path style="fill:#5BACF5;" d="M256,294.232c-24.598,0-44.61-20.011-44.61-44.61s20.011-44.611,44.61-44.611
	s44.61,20.011,44.61,44.61S280.598,294.232,256,294.232z M256,221.707c-15.392,0-27.914,12.522-27.914,27.914
	s12.522,27.914,27.914,27.914s27.914-12.522,27.914-27.914S271.392,221.707,256,221.707z"/>
<circle style="fill:#FFD117;" cx="104.07" cy="308.491" r="27.826"/>
<g>
	<rect x="48.417" y="451.896" style="fill:#0E0A57;" width="65.569" height="57.322"/>
	<rect x="398.013" y="451.896" style="fill:#0E0A57;" width="65.569" height="57.322"/>
</g>
<path style="fill:#4C7FE1;" d="M474.713,399.583H37.287c-9.839,0-17.809,7.969-17.809,17.809v16.696
	c0,9.839,7.969,17.809,17.809,17.809h437.426c9.839,0,17.809-7.969,17.809-17.809v-16.696
	C492.522,407.552,484.552,399.583,474.713,399.583z"/>
<g>
	<path style="fill:#5BACF5;" d="M374.539,460.243c-4.611,0-8.348-3.738-8.348-8.348v-58.991c0-4.61,3.736-8.348,8.348-8.348
		c4.611,0,8.348,3.738,8.348,8.348v58.991C382.887,456.506,379.15,460.243,374.539,460.243z"/>
	<path style="fill:#5BACF5;" d="M137.461,460.243c-4.611,0-8.348-3.738-8.348-8.348v-58.991c0-4.61,3.736-8.348,8.348-8.348
		c4.611,0,8.348,3.738,8.348,8.348v58.991C145.809,456.506,142.072,460.243,137.461,460.243z"/>
</g>
</svg>